0
SECTION
2
HEADER
9
$ACADVER
1
AC1015
0
ENDSEC
0
SECTION
2
ENTITIES
0
LINE
8
WALLS
10
0.0
20
0.0
11
120.0
21
0.0
0
LINE
8
WALLS
10
120.0
20
0.0
11
120.0
21
80.0
0
LINE
8
WALLS
10
120.0
20
80.0
11
0.0
21
80.0
0
LINE
8
WALLS
10
0.0
20
80.0
11
0.0
21
0.0
0
LINE
8
GRID
10
0.0
20
40.0
11
120.0
21
40.0
0
LINE
8
GRID
10
60.0
20
0.0
11
60.0
21
80.0
0
CIRCLE
8
COLUMNS
10
30.0
20
20.0
40
8.0
0
CIRCLE
8
COLUMNS
10
90.0
20
20.0
40
8.0
0
CIRCLE
8
COLUMNS
10
30.0
20
60.0
40
8.0
0
CIRCLE
8
COLUMNS
10
90.0
20
60.0
40
8.0
0
TEXT
8
ANNO
10
8.0
20
-8.0
40
5.0
1
FOUNDATION LAYOUT - REV B
0
ENDSEC
0
EOF
