0
SECTION
2
HEADER
9
$ACADVER
1
AC1015
9
$INSUNITS
70
4
0
ENDSEC
0
SECTION
2
TABLES
0
TABLE
2
LAYER
70
1
0
LAYER
2
0
70
0
62
7
6
CONTINUOUS
0
ENDTAB
0
TABLE
2
LTYPE
70
1
0
LTYPE
2
CONTINUOUS
70
0
3
Solid line
72
65
73
0
40
0.0
0
ENDTAB
0
ENDSEC
0
SECTION
2
ENTITIES
0
LINE
8
0
10
0.0
20
0.0
30
0.0
11
100.0
21
0.0
31
0.0
0
LINE
8
0
10
100.0
20
0.0
30
0.0
11
100.0
21
60.0
31
0.0
0
LINE
8
0
10
100.0
20
60.0
30
0.0
11
0.0
21
60.0
31
0.0
0
LINE
8
0
10
0.0
20
60.0
30
0.0
11
0.0
21
0.0
31
0.0
0
LINE
8
0
10
40.0
20
0.0
30
0.0
11
40.0
21
60.0
31
0.0
0
LINE
8
0
10
0.0
20
30.0
30
0.0
11
100.0
21
30.0
31
0.0
0
CIRCLE
8
0
10
70.0
20
45.0
30
0.0
40
12.0
0
TEXT
8
0
10
5.0
20
5.0
30
0.0
40
4.0
1
GROUND FLOOR - REV A
0
ENDSEC
0
EOF
